<?xml version="1.0" encoding="UTF-8" standalone="no"?>
<svg
   width="800"
   height="800"
   viewBox="0 0 800 800"
   version="1.1"
   id="svg138"
   sodipodi:docname="logo.svg"
   inkscape:version="1.2 (dc2aeda, 2022-05-15)"
   xmlns:inkscape="http://www.inkscape.org/namespaces/inkscape"
   xmlns:sodipodi="http://sodipodi.sourceforge.net/DTD/sodipodi-0.dtd"
   xmlns="http://www.w3.org/2000/svg"
   xmlns:svg="http://www.w3.org/2000/svg">
  <defs
     id="defs142" />
  <sodipodi:namedview
     id="namedview140"
     pagecolor="#ffffff"
     bordercolor="#000000"
     borderopacity="0.25"
     inkscape:showpageshadow="2"
     inkscape:pageopacity="0.0"
     inkscape:pagecheckerboard="0"
     inkscape:deskcolor="#d1d1d1"
     showgrid="false"
     inkscape:zoom="0.35355339"
     inkscape:cx="-299.81328"
     inkscape:cy="849.94235"
     inkscape:window-width="1390"
     inkscape:window-height="1205"
     inkscape:window-x="0"
     inkscape:window-y="25"
     inkscape:window-maximized="0"
     inkscape:current-layer="svg138" />
  <path
     d="M 393.52933,7.3226955 C 336.82888,11.986821 290.13463,48.641562 274.07375,101.09548 c -19.35876,63.22442 -5.58625,123.69679 50.999,223.92362 6.30707,11.17171 6.30707,11.17171 4.75246,12.98558 -0.85453,0.99784 -6.12328,6.64665 -11.70828,12.55336 -92.77815,98.12214 -117.76601,175.36711 -80.97972,250.33403 48.59974,99.04342 171.50484,110.77746 257.76988,24.61017 8.78465,-8.77481 8.78465,-8.77481 10.28333,-5.18276 21.8177,52.30781 17.82863,95.978 -11.54466,126.38073 -23.23276,24.04735 -53.59651,28.73637 -77.99293,12.04411 -10.90301,-7.45986 -23.96694,-25.42103 -16.35403,-22.48388 20.0199,7.72341 39.97148,-14.13517 30.67011,-33.60061 -12.83201,-26.8525 -50.00591,-14.34987 -51.51294,17.32506 -2.17567,45.73728 55.57796,76.16538 102.07827,53.7811 52.28287,-25.16735 70.41786,-87.77446 46.67311,-161.12906 -5.10334,-15.76582 -4.23755,-20.0884 8.3304,-41.57678 27.23115,-46.56036 36.31506,-77.33939 32.51437,-110.16673 -7.82063,-67.5531 -83.95774,-97.31831 -145.9979,-57.07716 -2.42179,1.57099 -4.46683,2.79292 -4.54474,2.71541 -0.0779,-0.0781 -6.30929,-11.02748 -13.84819,-24.33252 -7.53877,-13.30457 -13.98287,-24.62895 -14.32068,-25.165 -0.56513,-0.89683 0.0891,-1.87823 8.20032,-12.3086 C 475.28468,244.75758 509.09295,173.11539 509.10616,108.31293 509.12008,46.142262 458.56949,1.9726865 393.52933,7.3226955 m -1.08102,53.1050675 c -34.3293,3.879557 -64.41117,26.652822 -74.27253,56.227767 -12.40544,37.20159 2.11349,104.77819 38.40698,178.7623 3.63443,7.4082 3.63443,7.4082 8.37172,1.40939 63.99824,-81.03902 101.99466,-171.7511 87.32631,-208.482885 -7.88033,-19.73418 -32.12775,-31.047762 -59.83248,-27.916572 m 155.58072,33.158992 c -8.30118,2.93952 -11.51795,13.938325 -6.21677,21.256315 1.50285,2.0746 2.18263,2.5383 13.6043,9.28031 197.27697,116.45163 206.08416,400.24393 16.44279,529.82913 -10.89772,7.44718 -13.68083,13.02926 -10.23297,20.52953 6.73252,14.64677 18.72364,10.69157 52.17156,-17.2095 C 792.40803,508.28062 773.84313,228.56426 577.11726,104.6039 558.84286,93.088785 554.297,91.367455 548.02903,93.586755 m -330.99672,9.581935 c -8.41499,2.07414 -40.63066,26.81866 -61.11788,46.94371 -165.0880134,162.16776 -125.320363,437.36001 78.94331,546.29211 37.69396,20.10155 97.02558,38.50997 107.18676,33.25532 13.28584,-6.87027 9.56696,-23.98252 -5.83195,-26.83511 C 61.291857,651.89058 -11.536663,286.36631 222.46691,131.93465 c 7.95684,-5.25137 9.5518,-6.8604 10.93876,-11.0364 3.27631,-9.86428 -6.28453,-20.21666 -16.37336,-17.72956 m 132.47304,295.82936 c -37.23539,40.81101 -52.53232,61.97242 -63.76047,88.20385 -43.02755,100.52326 53.57814,185.77116 146.84783,129.58285 16.50526,-9.94319 46.67728,-36.11637 48.99668,-42.50229 0.32597,-0.8987 -5.21756,-9.57017 -37.05035,-57.95332 -13.25997,-20.15418 -28.32525,-43.09187 -33.4784,-50.97268 -5.15272,-7.88079 -9.45037,-14.41562 -9.54999,-14.52179 -0.10017,-0.10616 -1.29249,0.73241 -2.65065,1.86367 -25.1537,20.95846 -42.96773,49.48952 -51.59363,82.63255 -4.41521,16.96381 -22.60238,14.79194 -19.46603,-2.32407 6.92619,-37.80151 24.76804,-71.14233 52.35202,-97.82945 7.07936,-6.84961 7.07936,-6.84961 -3.39708,-23.45213 -5.76252,-9.13185 -11.62925,-18.45257 -13.03778,-20.71276 -3.17294,-5.09256 -1.34077,-6.12189 -14.21215,7.98557 m 118.99937,18.20124 c -7.24381,1.08522 -13.09412,2.82252 -22.08037,6.55643 -5.2753,2.19207 -15.03342,6.97551 -15.03342,7.36967 0,0.20718 1.02606,2.12769 2.28044,4.26714 5.14799,8.78233 60.7631,105.26208 63.24222,109.7115 3.39429,6.09088 5.64746,3.41352 18.09172,-21.49308 32.34826,-64.74374 10.41355,-114.93985 -46.50059,-106.41166"
     stroke="none"
     fill="#f5e04c"
     fill-rule="evenodd"
     id="path132"
     style="stroke-width:0.469795;fill:#fde047;fill-opacity:1" />
  <path
     d=""
     stroke="none"
     fill="#f4dc4c"
     fill-rule="evenodd"
     id="path134" />
  <path
     d=""
     stroke="none"
     fill="#f4e44c"
     fill-rule="evenodd"
     id="path136" />
</svg>
