<svg xmlns="http://www.w3.org/2000/svg" width="1728" height="2197" viewBox="0 0 1728 2197" version="1.1"><path d="M 823.408 268.033 C 702.716 277.961, 603.323 355.984, 569.136 467.637 C 527.929 602.216, 557.245 730.937, 677.692 944.279 C 691.117 968.059, 691.117 968.059, 687.808 971.920 C 685.989 974.044, 674.774 986.068, 662.886 998.641 C 465.399 1207.503, 412.210 1371.926, 490.513 1531.500 C 593.962 1742.323, 855.577 1767.300, 1039.200 1583.885 C 1057.899 1565.207, 1057.899 1565.207, 1061.089 1572.853 C 1107.530 1684.195, 1099.039 1777.151, 1036.515 1841.866 C 987.062 1893.053, 922.430 1903.034, 870.500 1867.503 C 847.292 1851.624, 819.484 1813.392, 835.689 1819.644 C 878.303 1836.084, 920.772 1789.556, 900.973 1748.122 C 873.659 1690.964, 794.531 1717.577, 791.323 1785 C 786.692 1882.356, 909.626 1947.125, 1008.606 1899.478 C 1119.895 1845.907, 1158.497 1712.642, 1107.954 1556.500 C 1097.091 1522.941, 1098.934 1513.740, 1125.686 1468 C 1183.650 1368.892, 1202.986 1303.376, 1194.896 1233.500 C 1178.249 1089.707, 1016.184 1026.349, 884.126 1112.006 C 878.971 1115.350, 874.618 1117.951, 874.452 1117.786 C 874.287 1117.620, 861.022 1094.313, 844.975 1065.992 C 828.928 1037.672, 815.211 1013.567, 814.492 1012.426 C 813.289 1010.517, 814.681 1008.428, 831.947 986.226 C 997.432 773.435, 1069.396 620.938, 1069.424 483 C 1069.450 350.664, 961.852 256.645, 823.408 268.033 M 821.107 381.072 C 748.034 389.330, 684.002 437.805, 663.011 500.758 C 636.605 579.945, 667.510 723.788, 744.764 881.270 C 752.500 897.039, 752.500 897.039, 762.584 884.270 C 898.810 711.771, 979.689 518.682, 948.466 440.495 C 931.692 398.489, 880.079 374.407, 821.107 381.072 M 1152.275 451.654 C 1134.605 457.911, 1127.758 481.323, 1139.042 496.900 C 1142.241 501.316, 1143.688 502.303, 1168 516.654 C 1587.922 764.532, 1606.669 1368.610, 1203 1644.444 C 1179.803 1660.296, 1173.879 1672.178, 1181.218 1688.143 C 1195.549 1719.320, 1221.073 1710.901, 1292.270 1651.511 C 1672.458 1334.368, 1632.941 738.966, 1214.192 475.105 C 1175.293 450.594, 1165.617 446.930, 1152.275 451.654 M 447.718 472.050 C 429.806 476.465, 361.232 529.136, 317.623 571.974 C -33.782 917.163, 50.867 1502.935, 485.661 1734.807 C 565.896 1777.595, 692.189 1816.779, 713.818 1805.594 C 742.098 1790.970, 734.182 1754.545, 701.404 1748.473 C 116.210 1640.055, -38.812 862.003, 459.286 533.281 C 476.223 522.103, 479.618 518.678, 482.570 509.789 C 489.544 488.792, 469.193 466.756, 447.718 472.050 M 729.699 1101.750 C 650.440 1188.620, 617.879 1233.664, 593.979 1289.500 C 502.391 1503.473, 708.025 1684.931, 906.558 1565.329 C 941.691 1544.164, 1005.915 1488.452, 1010.852 1474.859 C 1011.546 1472.946, 999.746 1454.488, 931.987 1351.500 C 903.762 1308.600, 871.694 1259.775, 860.725 1243 C 849.757 1226.225, 840.609 1212.315, 840.397 1212.089 C 840.185 1211.863, 837.646 1213.648, 834.755 1216.056 C 781.213 1260.668, 743.294 1321.399, 724.933 1391.947 C 715.535 1428.056, 676.822 1423.433, 683.498 1387 C 698.241 1306.536, 736.219 1235.567, 794.934 1178.761 C 810.003 1164.181, 810.003 1164.181, 787.703 1128.841 C 775.437 1109.403, 762.949 1089.563, 759.951 1084.752 C 753.197 1073.912, 757.097 1071.721, 729.699 1101.750 M 983 1140.493 C 967.581 1142.803, 955.128 1146.501, 936 1154.449 C 924.771 1159.115, 904 1169.297, 904 1170.136 C 904 1170.577, 906.184 1174.665, 908.854 1179.219 C 919.812 1197.913, 1038.194 1403.279, 1043.471 1412.750 C 1050.696 1425.715, 1055.492 1420.016, 1081.981 1367 C 1150.837 1229.187, 1104.147 1122.340, 983 1140.493" stroke="none" fill="#f5e04c" fill-rule="evenodd"/><path d="" stroke="none" fill="#f4dc4c" fill-rule="evenodd"/><path d="" stroke="none" fill="#f4e44c" fill-rule="evenodd"/></svg>