<?xml version="1.0" encoding="UTF-8" standalone="no"?>
<!-- Created with Inkscape (http://www.inkscape.org/) -->

<svg
   width="605.52429mm"
   height="693.00208mm"
   viewBox="0 0 605.52429 693.00208"
   version="1.1"
   id="svg1466"
   inkscape:version="1.2 (dc2aeda, 2022-05-15)"
   sodipodi:docname="Mc-pidgeon copy.svg"
   inkscape:export-filename="MC=pidgeon"
   inkscape:export-xdpi="96"
   inkscape:export-ydpi="96"
   xmlns:inkscape="http://www.inkscape.org/namespaces/inkscape"
   xmlns:sodipodi="http://sodipodi.sourceforge.net/DTD/sodipodi-0.dtd"
   xmlns="http://www.w3.org/2000/svg"
   xmlns:svg="http://www.w3.org/2000/svg">
  <sodipodi:namedview
     id="namedview1468"
     pagecolor="#ffffff"
     bordercolor="#000000"
     borderopacity="0.25"
     inkscape:showpageshadow="2"
     inkscape:pageopacity="0.0"
     inkscape:pagecheckerboard="0"
     inkscape:deskcolor="#d1d1d1"
     inkscape:document-units="mm"
     showgrid="false"
     inkscape:zoom="0.16582859"
     inkscape:cx="1100.534"
     inkscape:cy="2698.5696"
     inkscape:window-width="2240"
     inkscape:window-height="1207"
     inkscape:window-x="0"
     inkscape:window-y="25"
     inkscape:window-maximized="1"
     inkscape:current-layer="layer1" />
  <defs
     id="defs1463" />
  <g
     inkscape:label="Layer 1"
     inkscape:groupmode="layer"
     id="layer1"
     transform="translate(-157.35001,-153.49895)">
    <g
       id="g4163"
       transform="matrix(-4.9930131,0,0,5.5711845,851.61551,-98.688059)">
      <path
         d="m 58.189962,45.331385 c -0.394492,0.02811 -2.176064,0.323247 -3.24501,0.534058 -3.855834,0.758924 -8.182516,3.302726 -10.740346,6.324368 -0.992592,1.166494 -2.188792,3.049751 -2.837793,4.483274 -0.71263,1.531903 -1.285279,3.766513 -1.616143,6.183827 -0.279961,2.037852 -0.216333,1.869201 -0.903513,2.094068 -3.283186,1.08217 -6.986314,4.947061 -7.45716,7.786 -0.08908,0.477841 0.279963,1.194603 0.750808,1.461632 0.216333,0.140541 0.890786,0.323245 1.488886,0.40757 1.577966,0.23892 1.81975,0.379462 2.965049,1.616227 0.572648,0.618383 1.247101,1.278927 1.488886,1.475685 0.34359,0.295138 0.407217,0.407571 0.292687,0.562167 -0.07635,0.112433 -0.432667,1.138386 -0.801708,2.30488 -1.234376,3.949216 -2.074261,6.352476 -3.61405,10.329801 -0.165431,0.421625 -0.381766,1.011899 -0.470844,1.292982 -0.139981,0.463787 -0.254511,0.562165 -0.801709,0.758924 -0.356315,0.126487 -1.425259,0.618383 -2.366949,1.068115 -7.049943,3.429213 -10.931229,7.153567 -12.229233,11.777387 -0.445393,1.57406 -0.419942,3.9211 0.0509,5.81842 0.419943,1.65839 1.08167,3.27461 2.010634,4.87679 0.763531,1.30702 2.366948,3.5838 3.346814,4.7503 0.36904,0.43567 0.547198,0.71676 0.407217,0.66054 -0.509022,-0.19676 -1.67977,-0.25297 -2.214242,-0.0984 -0.763532,0.23892 -1.361632,0.87136 -1.628868,1.72867 -0.687178,2.29082 1.259827,5.21408 4.199424,6.29625 2.036085,0.74487 4.237602,0.78704 6.668178,0.14054 0.585374,-0.15459 1.08167,-0.28108 1.107121,-0.28108 0.01273,0 0.318138,0.49189 0.649002,1.08218 2.685087,4.7784 5.917371,7.95464 10.994857,10.82169 l 1.616142,0.91352 0.07635,0.85731 c 0.127255,1.82703 1.45071,3.9211 3.168657,5.04543 0.470844,0.30919 0.890787,0.60433 0.916237,0.66055 0.03818,0.0703 -0.305412,2.92325 -0.496295,4.08975 -0.203608,1.23676 -0.458119,2.30489 -0.699903,2.81083 l -0.254511,0.56217 H 47.08057 c -0.496296,0 -1.374357,0.0563 -1.93428,0.12648 -0.559924,0.0703 -1.730672,0.21081 -2.608734,0.29515 -3.372265,0.33729 -5.561057,1.1946 -6.248236,2.44542 -0.292686,0.52 -0.318137,1.61622 -0.06362,2.16433 0.407216,0.87135 1.501613,1.34921 2.863244,1.26487 0.432668,-0.014 0.776257,-0.028 0.776257,0 0,0.0281 -0.13998,0.25298 -0.305411,0.4919 -0.470846,0.67461 -0.839886,1.64434 -0.839886,2.22056 0,1.18055 1.145297,1.85514 3.117755,1.82703 1.247101,-0.014 2.748714,-0.59027 6.299136,-2.40325 3.435893,-1.75677 4.263052,-2.00975 7.762573,-2.38921 1.90883,-0.21081 2.672361,-0.44973 3.232285,-1.04 0.394492,-0.40757 0.458118,-0.54812 0.458118,-1.12434 0,-1.12433 -0.483569,-1.88326 -1.628867,-2.52974 -0.458118,-0.26703 -2.748712,-0.78704 -3.448617,-0.78704 H 54.07962 l 0.08908,-1.1665 c 0.0509,-0.63244 0.203609,-2.27676 0.356316,-3.64002 l 0.267234,-2.47353 0.776258,-0.36541 c 1.119848,-0.53406 1.93428,-1.25081 2.468753,-2.16434 l 0.470845,-0.80109 0.636276,0.0843 c 3.35954,0.50596 6.413664,0.6465 8.971495,0.42163 l 1.845208,-0.15459 1.221651,1.30703 c 1.361631,1.48974 2.46875,2.24867 3.894006,2.6984 0.509026,0.16865 0.95442,0.32325 0.992598,0.36541 0.06361,0.0843 0.101805,0.30919 0.38176,2.58597 0.114531,0.84325 0.292686,2.2346 0.394496,3.07785 0.216333,1.72866 0.216333,1.75677 -0.649006,1.77083 -0.279958,0.014 -0.788985,0.0703 -1.145297,0.14054 -0.343592,0.0703 -1.463432,0.26703 -2.456029,0.40756 -2.710532,0.42162 -4.848427,1.19461 -5.790112,2.12218 -1.018045,0.9838 -0.992589,2.72651 0.05092,3.82274 0.559924,0.59026 1.145297,0.81513 2.150615,0.81513 0.649006,-0.014 2.112439,-0.25298 2.977777,-0.49189 l 0.369041,-0.11243 -0.407217,0.82919 c -0.687183,1.43352 -0.559925,2.40326 0.419944,3.20435 0.292686,0.25297 0.534469,0.29514 1.514338,0.28109 1.501609,0 2.061532,-0.23893 4.403032,-1.88326 3.626775,-2.55786 4.555739,-2.97949 7.011762,-3.23245 2.392404,-0.22487 3.19411,-0.54811 3.690408,-1.43353 0.572648,-1.04001 0.445397,-1.8692 -0.394496,-2.6984 -0.776257,-0.78704 -1.896107,-1.04001 -4.530284,-1.08217 l -1.399807,-0.014 -0.07636,-1.20865 c -0.07636,-0.99786 -0.279966,-2.64219 -0.776257,-6.28222 -0.127258,-0.95568 -0.22906,-1.57406 -0.279966,-1.77081 -0.03815,-0.14055 0.203613,-0.44975 0.699904,-0.87137 0.903516,-0.78703 1.819751,-2.09406 2.31605,-3.28867 0.356312,-0.85731 0.381761,-0.88541 1.094392,-1.11027 5.179292,-1.60217 9.798667,-3.48544 13.374544,-5.42491 5.815548,-3.16219 9.798648,-7.95464 8.411568,-10.10493 -0.64901,-1.0119 -1.76885,-1.15244 -4.31396,-0.54812 -2.20152,0.52001 -4.517548,0.68866 -6.133705,0.42163 -1.565238,-0.25298 -1.781566,-0.37947 -1.985189,-1.19461 -0.318134,-1.29297 -1.081677,-2.00973 -2.659631,-2.44542 l -0.827163,-0.23891 1.310723,-0.95569 c 1.756131,-1.29298 3.079582,-2.40326 4.072171,-3.44327 0.445397,-0.46378 0.903523,-0.85729 1.005317,-0.85729 0.101783,0 0.623559,0.12649 1.145299,0.28108 2.074268,0.60433 4.441208,0.22486 7.279008,-1.1665 0.39449,-0.19675 1.81975,-1.04001 3.18137,-1.8692 2.85053,-1.74272 4.55576,-2.60002 6.08281,-3.0357 2.64324,-0.8075 2.97348,-0.95578 5.21293,-1.3456 3.37298,-0.58712 9.51171,-1.68679 13.81336,-2.49828 0.35632,-0.39353 0.32812,-0.55392 -0.0409,-1.01771 -0.50902,-0.66055 -16.18575,2.33185 -18.92174,2.85186 -1.2471,0.23891 -3.5886,1.33513 -6.27368,2.92325 -4.91206,2.90921 -7.15176,3.59787 -9.862288,3.02165 l -0.8017,-0.16865 0.40722,-0.84325 c 0.83987,-1.75677 1.094388,-3.7103 0.76353,-5.77626 -0.10178,-0.70271 -0.31813,-1.61622 -0.47084,-2.03785 -1.628873,-4.45517 -7.571699,-9.331964 -15.63969,-12.859554 -1.018039,-0.44973 -1.883377,-0.8573 -1.947003,-0.89946 -0.152707,-0.16865 3.283184,-0.87136 4.912052,-0.997849 5.790125,-0.505949 12.420121,2.136229 23.313179,9.275743 4.67026,3.06381 8.70426,4.98922 12.72552,6.11356 2.57055,0.71676 3.99582,0.94163 6.2355,0.98378 2.45605,0.0422 3.75404,-0.0984 5.71378,-0.64648 2.64691,-0.73082 4.04673,-1.41947 4.26306,-2.10813 0.2036,-0.66054 -0.0128,-0.94163 -1.74341,-2.2065 -1.81975,-1.33515 -2.76143,-2.33299 -3.29591,-3.54165 -1.01804,-2.30488 -0.85261,-3.808674 0.90351,-8.193568 1.43799,-3.583809 1.85793,-5.410849 1.85793,-8.010866 0,-1.981636 -0.21633,-3.105967 -0.89078,-4.63787 -0.8908,-2.051906 -1.53979,-2.375151 -2.68509,-1.292982 -1.01805,0.955682 -3.35953,2.642181 -4.69571,3.387051 -2.22698,1.22271 -4.67028,1.981634 -7.5208,2.318935 -1.298,0.154595 -6.1337,0.09838 -7.36808,-0.08432 -0.8017,-0.112434 -4.51756,-0.857304 -6.04463,-1.194602 -0.6999,-0.154597 -1.41253,-0.309193 -1.57796,-0.351355 -0.16543,-0.02811 -0.5981,-0.126487 -0.95442,-0.210813 -3.24501,-0.74487 -6.375488,-1.124331 -9.200555,-1.124331 -4.708452,0 -10.205879,1.812986 -14.328954,4.736248 l -0.890795,0.632414 0.07635,-4.483273 c 0.03815,-2.459477 0.139979,-5.48112 0.229061,-6.717884 0.139979,-2.136186 0.08908,-8.811908 -0.07635,-10.329756 -0.559924,-5.04544 -1.819752,-9.135198 -3.843108,-12.49414 -2.557832,-4.2303 -6.668178,-7.237888 -11.68204,-8.516816 -1.896103,-0.491895 -4.822975,-0.702707 -7.062667,-0.520003 z m 3.626776,1.99569 c 5.54833,0.520004 10.205873,3.274617 13.29818,7.884378 1.883377,2.796776 2.799613,5.438957 3.486796,9.992502 0.547196,3.640025 0.648999,6.422746 0.407217,11.566566 -0.292694,6.422747 -0.381769,11.201158 -0.229061,12.367652 0.07635,0.534057 0.267238,1.82704 0.419937,2.838939 0.35632,2.192447 0.330864,2.290826 -0.788977,3.176234 -1.908834,1.48974 -4.593917,1.5038 -6.260961,0.0141 -1.183474,-1.054063 -1.488888,-0.997846 -2.20152,0.50595 -0.598102,1.25082 -1.539786,2.2065 -2.95232,2.97948 -2.137887,1.18055 -3.93219,0.74486 -4.797526,-1.1665 -0.356314,-0.75892 -0.801708,-1.16649 -1.132572,-1.02595 -0.241784,0.0984 -0.636275,0.89947 -0.776256,1.56001 -0.152707,0.8292 -2.112438,2.501644 -3.626777,3.105974 -1.081669,0.43568 -1.921555,0.44973 -2.774164,0.0281 -1.107121,-0.53406 -1.807026,-1.644334 -1.807026,-2.838944 0,-0.68865 -0.279962,-1.23676 -0.636276,-1.23676 -0.127255,0 -0.381766,0.16865 -0.559924,0.37946 -0.165431,0.22487 -0.585373,0.73082 -0.903512,1.12433 -0.649002,0.80109 -2.112438,1.897314 -3.24501,2.431374 -1.005317,0.47784 -2.277869,0.47784 -3.041402,0 -1.081669,-0.6746 -1.7943,-2.164344 -1.7943,-3.738414 0,-1.56001 -0.699903,-1.74271 -1.947005,-0.52 -1.628867,1.60218 -4.568464,1.82704 -5.63741,0.42163 -0.521745,-0.68866 -0.509021,-0.73082 1.832477,-7.055187 0.48357,-1.32109 1.501613,-4.258407 2.252419,-6.53518 0.763531,-2.276773 1.425259,-4.216245 1.488886,-4.314625 0.08908,-0.112434 0.381766,-0.02811 1.08167,0.3373 2.64691,1.349198 5.942823,1.32109 8.526105,-0.05621 1.819751,-0.969737 2.837793,-2.768668 2.837793,-5.003278 0,-3.527591 -1.857927,-7.265996 -4.453936,-8.93844 -1.539788,-0.997847 -3.206833,-1.44758 -5.128388,-1.405418 l -1.170748,0.02811 -0.01273,-0.772977 c -0.02545,-0.885412 0.521747,-3.387051 1.018042,-4.750304 1.387083,-3.752458 4.224877,-7.069237 7.686221,-8.980602 1.997907,-1.096223 3.830383,-1.714606 6.26096,-2.108122 2.672361,-0.449732 3.24501,-0.477841 5.281094,-0.295137 z M 44.471842,66.356396 c 2.405124,0.520003 4.09762,1.981634 5.192016,4.511381 0.788982,1.812986 0.801708,1.798932 -0.152706,2.206502 -0.445394,0.196759 -1.399809,0.534058 -2.137889,0.758924 -1.183475,0.351354 -1.552515,0.407571 -3.181382,0.407571 -1.67977,0 -2.074262,-0.05621 -4.453936,-0.590274 -2.697813,-0.618383 -5.026584,-1.025953 -5.879194,-1.025953 -0.267236,0 -0.483571,-0.04216 -0.483571,-0.112433 0,-0.05621 0.203609,-0.421626 0.445394,-0.829195 2.354223,-3.864892 6.871786,-6.127611 10.651268,-5.326523 z m 5.802841,9.613039 c -0.216334,0.491895 -0.496295,0.81514 -1.094395,1.250818 -2.532381,1.883257 -6.515471,1.672445 -9.378715,-0.477841 -0.82716,-0.618381 -1.654319,-1.419468 -1.565241,-1.517847 0.02545,-0.02811 0.585375,0.05621 1.247102,0.210812 1.870653,0.421624 3.741306,0.702707 4.644819,0.702707 1.463436,0 4.848426,-0.688653 5.980998,-1.208657 0.343589,-0.154596 0.381765,-0.154596 0.419943,0.09838 0.02546,0.154596 -0.08908,0.57622 -0.254511,0.94163 z m 84.561137,8.769789 c 0.17816,1.236765 -0.0381,3.569755 -0.47084,5.171927 -0.16543,0.660545 -0.72535,2.276773 -1.22165,3.583809 -1.15802,3.049746 -1.47616,4.033536 -1.64159,5.228146 -0.21634,1.574074 0.16543,3.457314 1.03076,5.073554 0.47085,0.87135 2.16335,2.85299 3.00323,3.51353 l 0.55992,0.43568 -1.25983,0.42163 c -1.74338,0.59027 -2.26514,0.64649 -5.51015,0.63244 -2.4433,0 -3.05413,-0.0422 -4.19942,-0.3092 -4.88661,-1.13839 -8.9715,-2.99353 -14.2526,-6.46491 -8.00435,-5.256254 -13.336354,-7.870325 -18.452017,-9.03682 -1.807023,-0.421623 -2.17606,-0.463786 -4.390304,-0.463786 -2.532384,0 -3.881285,0.182703 -5.701037,0.772977 -0.48357,0.154597 -0.890787,0.26703 -0.916243,0.238921 -0.02546,-0.02811 -0.07635,-0.435678 -0.127252,-0.91352 -0.03815,-0.477841 -0.127251,-1.082168 -0.203612,-1.335144 -0.0636,-0.252974 -0.114523,-0.548112 -0.114523,-0.64649 0,-0.224867 2.163336,-1.784877 3.626775,-2.614073 2.239689,-1.264874 4.504839,-2.094069 7.266276,-2.628126 1.387083,-0.281082 2.074255,-0.323245 4.441209,-0.323245 3.32137,0 4.466668,0.154596 9.925918,1.32109 2.09971,0.463787 3.9958,0.857303 4.19943,0.899466 2.15061,0.40757 2.91413,0.534057 4.39029,0.716761 2.45603,0.295138 4.42849,0.252974 7.44444,-0.154596 3.76676,-0.505949 7.72441,-2.375151 11.00759,-5.200035 l 0.6999,-0.604329 0.36904,0.871358 c 0.20361,0.47784 0.41995,1.292982 0.49629,1.812985 z M 32.484394,95.181456 c 0,0.0422 -0.08908,0.30919 -0.203609,0.60433 -1.463436,3.85083 -2.774166,8.502764 -3.308637,11.861714 l -0.216334,1.36325 -0.5981,-0.56217 c -0.941689,-0.87136 -1.654319,-0.70271 -1.654319,0.39351 0,0.47784 0.458119,1.11029 1.323455,1.8411 l 0.610825,0.52 -0.01273,2.95138 c -0.01273,2.31893 0.03818,3.37299 0.241785,4.9049 0.356315,2.74055 1.08167,5.57949 1.921555,7.63139 0.318139,0.80109 0.330864,0.89948 0.139981,1.01191 -0.559923,0.32323 -1.717947,0.60432 -2.761439,0.64649 -3.117755,0.14054 -5.624685,-1.33515 -6.184608,-3.64003 -0.127255,-0.53405 -0.11453,-0.59026 0.203609,-0.88541 0.407216,-0.39352 0.585373,-0.39352 1.539789,-0.0281 0.407217,0.15459 1.119846,0.32324 1.590691,0.36541 0.814434,0.0843 0.827159,0.0703 1.183473,-0.39352 0.68718,-0.89947 0.381766,-1.61623 -1.8452,-4.27246 -3.855836,-4.62382 -5.510155,-9.06493 -4.772075,-12.77523 0.559925,-2.75461 2.443303,-5.2422 5.866469,-7.743834 1.730673,-1.26488 3.232285,-2.16434 5.217468,-3.12003 1.539789,-0.73081 1.717947,-0.80108 1.717947,-0.6746 z m 48.433363,2.16434 c 6.082805,2.3611 10.829422,5.298414 14.138062,8.741684 2.010634,2.08002 2.914146,3.92111 3.054126,6.24005 0.08909,1.47568 -0.101783,2.55785 -0.712629,3.93516 -1.25982,2.90921 -3.563143,5.22814 -7.711674,7.80005 -4.74662,2.92327 -4.657538,2.85299 -4.173968,3.40111 0.279959,0.29513 0.318135,0.30919 1.208923,0.12649 2.837793,-0.54812 4.657545,-0.54812 5.828299,0 0.62354,0.29513 0.661726,0.33729 0.585366,0.73081 -0.2036,1.12432 -1.641586,2.78272 -3.117757,3.61191 -2.990493,1.6584 -6.490011,1.79894 -9.55687,0.36541 -1.857921,-0.87136 -2.977769,-1.96758 -3.792203,-3.71029 -0.636278,-1.36325 -0.827162,-2.43137 -0.661727,-3.64003 0.381761,-2.64218 2.010629,-5.27031 5.522873,-8.93844 2.532384,-2.65623 2.634186,-3.0638 1.107129,-4.32868 -1.437992,-1.1946 -5.637412,-3.21839 -6.668178,-3.21839 -0.458123,0 -0.852611,0.3373 -0.763536,0.6746 0.08908,0.35135 0.445393,0.60433 2.965048,2.06595 1.259828,0.74488 2.532384,1.5038 2.812341,1.71462 l 0.50902,0.36539 -1.463433,1.63029 c -2.761436,3.07786 -3.817659,4.53949 -4.7848,6.68978 -1.399807,3.07785 -1.501609,5.67787 -0.318135,8.01086 1.158025,2.27677 3.410442,4.25841 5.764662,5.0876 2.074261,0.73082 3.588599,0.82919 6.133703,0.44973 2.685089,-0.40757 5.077489,-1.74272 6.846337,-3.85084 l 0.801706,-0.94163 0.509028,0.22487 c 1.527063,0.67461 5.20474,0.77298 7.81347,0.21082 0.77626,-0.1546 1.7943,-0.32324 2.26515,-0.36541 l 0.87805,-0.0703 -0.19088,0.39352 c -0.22905,0.50596 -1.7943,2.3892 -2.88869,3.48543 -2.939598,2.95138 -9.022397,5.97301 -16.734074,8.32005 -0.610822,0.18271 -0.636278,0.18271 -0.954414,-0.15459 -0.687174,-0.73082 -1.183473,-0.35135 -1.717942,1.30704 -1.018046,3.1903 -3.168661,5.2422 -5.726493,5.46707 -1.196194,0.0984 -2.735988,-0.32326 -3.868557,-1.06812 -1.437984,-0.94163 -3.155933,-3.12002 -4.199428,-5.34058 -0.292686,-0.63244 -0.623549,-1.1946 -0.73808,-1.23677 -0.101805,-0.0421 -0.305415,0.0563 -0.458122,0.22488 -0.356312,0.39351 -0.343583,1.36325 0.02546,2.31892 0.216332,0.54812 0.241781,0.71676 0.11453,0.81514 -0.165435,0.12649 -7.266277,0.0421 -8.182516,-0.0984 -4.950229,-0.74486 -7.648043,-1.41946 -11.198465,-2.76866 -6.528197,-2.47354 -11.542056,-6.49302 -14.723438,-11.79144 -2.608733,-4.32867 -4.021266,-9.12113 -4.301228,-14.64442 -0.07635,-1.30704 -0.101806,-2.6984 -0.06362,-3.10597 0.03817,-0.39351 0.101805,-1.06811 0.13998,-1.48974 0.305412,-3.58381 1.08167,-7.23789 2.239693,-10.68115 0.279962,-0.801094 0.534471,-1.517854 0.572649,-1.588124 0.03817,-0.0703 0.216334,0.0281 0.407216,0.22487 0.776258,0.81514 2.366949,1.321094 3.61405,1.152444 0.992592,-0.126494 2.137889,-0.463794 2.608733,-0.787034 0.419944,-0.26703 0.661728,-0.25298 0.661728,0.0421 0,0.40757 0.852611,1.967584 1.374358,2.543804 0.928964,0.99784 1.781574,1.40542 3.079578,1.47568 0.992591,0.0562 1.183474,0.014 2.226968,-0.42162 0.636275,-0.26703 1.743397,-0.87136 2.481478,-1.36326 1.196199,-0.77297 1.348907,-0.84324 1.463436,-0.63243 0.330863,0.63243 1.158023,1.46163 1.870652,1.88326 0.687179,0.40757 0.928964,0.47784 2.010635,0.53405 1.145297,0.0562 1.272552,0.0421 2.188789,-0.39351 1.208927,-0.54811 2.176066,-1.23677 3.359541,-2.3611 l 0.903512,-0.857304 0.279962,0.323244 c 0.165432,0.18271 0.636276,0.52001 1.068945,0.73082 0.712629,0.36541 0.916237,0.40758 2.125165,0.39352 1.107121,0 1.476161,-0.0703 2.188785,-0.36541 1.336181,-0.56216 2.239696,-1.208664 3.346817,-2.431374 l 1.030766,-1.12433 1.145297,0.49189 c 0.979869,0.42163 1.285284,0.4919 2.214248,0.4919 1.259821,0 2.519648,-0.3373 3.779476,-0.99784 0.47085,-0.25298 0.903515,-0.46379 0.941693,-0.46379 0.03815,-0.0141 0.699903,0.22486 1.463431,0.53406 z M 49.727486,144.28666 c 1.81975,0.63244 3.664952,1.12433 5.573781,1.48974 0.674453,0.14054 1.234376,0.29514 1.234376,0.36541 0,0.19675 -1.081669,1.09622 -1.67977,1.39136 -1.908829,0.92757 -4.504837,0.23892 -6.210057,-1.67244 -0.674453,-0.75893 -1.527064,-2.2065 -1.527064,-2.61408 0,-0.0421 0.216334,0.0422 0.48357,0.19676 0.254511,0.14054 1.221652,0.52001 2.125164,0.84325 z m 2.634184,5.59355 c 0.890787,0.0984 0.865336,-0.0984 0.419943,3.23247 -0.419943,3.04974 -0.45812,3.24649 -0.534473,3.6119 -0.02545,0.1546 -0.08908,0.59028 -0.127255,0.94163 -0.06362,0.56218 -0.02546,0.6746 0.254511,0.92757 0.267236,0.22487 0.5981,0.29514 1.832475,0.36541 0.82716,0.0421 1.7943,0.1827 2.137891,0.29515 0.610824,0.21081 1.603416,0.95567 1.463434,1.11027 -0.03817,0.0421 -0.979865,0.18271 -2.099712,0.3092 -1.119846,0.12649 -2.405124,0.32324 -2.837793,0.43567 -1.10712,0.26704 -3.792208,1.40542 -6.082802,2.55786 -1.043495,0.53405 -2.265145,1.09623 -2.723264,1.26487 -1.31073,0.47784 -3.563149,0.68865 -3.563149,0.32325 0,-0.0563 0.190884,-0.43568 0.419944,-0.8573 0.369039,-0.70272 0.50902,-0.82921 1.539788,-1.37732 0.623551,-0.3373 1.730673,-0.78703 2.456028,-0.99784 0.725355,-0.22486 1.425259,-0.50594 1.565239,-0.64648 0.534473,-0.53407 0.165432,-1.4757 -0.572648,-1.4757 -0.458119,0 -2.125163,0.37947 -3.944915,0.89948 -1.590691,0.46378 -2.697811,0.47783 -3.474069,0.0703 -0.5981,-0.32324 -0.801708,-0.64649 -0.521747,-0.84325 0.203609,-0.1546 1.348907,-0.53405 1.857928,-0.63244 0.190883,-0.0281 0.903512,-0.1827 1.56524,-0.3373 0.661728,-0.14053 1.577965,-0.30919 2.036084,-0.35135 0.458119,-0.0563 1.030769,-0.12649 1.272553,-0.16865 0.241785,-0.0281 1.298005,-0.0843 2.328772,-0.11243 2.596009,-0.0703 2.672361,-0.12649 3.194107,-2.74056 0.178158,-0.88541 0.356316,-1.86921 0.394492,-2.17839 0.03817,-0.30919 0.127255,-0.88542 0.190883,-1.26488 0.06362,-0.39352 0.152707,-1.08217 0.203609,-1.54596 0.08908,-0.99784 0.13998,-1.09621 0.407218,-0.98379 0.101805,0.0421 0.534472,0.11244 0.941688,0.16865 z m 27.818007,1.72866 c 0.318135,1.63029 0.648998,4.80652 0.73808,6.99897 0.08908,2.24867 0.101805,2.29083 0.419945,2.57191 0.267231,0.23892 0.445394,0.26703 0.903508,0.21082 0.318136,-0.0563 1.234379,-0.12649 2.048814,-0.16865 1.577962,-0.0843 2.69781,0.12648 3.041401,0.57622 0.330864,0.43567 0.13998,0.49189 -2.83779,0.91351 -0.610829,0.0843 -1.603418,0.33731 -2.226969,0.57622 -1.756125,0.68866 -3.194109,1.53191 -5.624683,3.28868 -0.916244,0.67459 -2.176072,1.1946 -2.863246,1.1946 -0.547196,0 -0.559925,-0.16865 -0.127259,-1.12433 0.36904,-0.80109 1.781575,-2.1784 2.82507,-2.75462 1.208923,-0.66054 1.501609,-1.2227 0.878059,-1.67244 -0.36904,-0.26703 -0.750801,-0.1827 -2.939593,0.61838 -2.417852,0.88542 -3.435898,1.13839 -4.606644,1.13839 -1.158025,0 -1.705222,-0.21081 -1.959731,-0.73081 -0.127259,-0.25298 -0.101805,-0.3373 0.127259,-0.54812 1.00531,-0.89946 4.606636,-1.75677 9.340532,-2.22056 0.967142,-0.0984 1.170753,-0.16864 1.450712,-0.47784 0.36904,-0.40757 0.407217,0.0281 -0.279959,-4.03354 -0.267237,-1.60217 -0.699903,-4.52543 -0.699903,-4.70814 0,-0.0281 0.25451,-0.0843 0.572645,-0.14054 0.318136,-0.0421 0.801706,-0.16865 1.056222,-0.28108 0.25451,-0.0984 0.50902,-0.14055 0.547198,-0.0843 0.03815,0.0421 0.139978,0.43567 0.216332,0.85731 z"
         id="path132"
         sodipodi:nodetypes="cccccccccsccccccccccccccccscccccccccssccccscsccccscscccccccccccccccccccccccccccccccccccccccccccccccsccccsccccccccccccccccccccscccccsccscccccccccccccccccccccccssccccscccccccsccccccccccccscsscccccscscccccscccccccccscsccsccsccccccccsccccsccccccccccccccccsccsccccccccccccscccccccccccsccccccccccccscccccccccscccscccccccccccccccccscccccsccscccccccccsscccsccccscccccccccscccccccccccccsccccscccscscccc"
         style="fill:#ffffff;stroke-width:0.0133734" />
      <path
         d="m 63.127467,62.069879 c -1.476161,0.534058 -2.608733,1.531903 -3.537697,3.120022 -1.959731,3.344888 -1.310728,8.320057 1.31073,10.161151 3.741308,2.628126 8.131613,0.08432 9.073306,-5.242198 0.48357,-2.698397 -0.279967,-5.523282 -1.870658,-6.928697 -1.208922,-1.068116 -3.588598,-1.602173 -4.975681,-1.110278 z m 2.176068,1.925419 c 0.03815,0.04216 -0.229061,0.393516 -0.598101,0.801086 -0.763532,0.857303 -1.132573,1.728661 -1.298006,3.077859 -0.211105,1.848829 0.331522,4.689748 1.565243,5.734094 l 0.598095,0.491895 -0.534469,0.182705 c -1.094395,0.365407 -2.443302,-0.05621 -3.448619,-1.082171 -0.674452,-0.688652 -1.081669,-1.65839 -1.22165,-2.909208 -0.279961,-2.64218 0.776258,-4.890845 2.825067,-6.029231 0.801708,-0.449733 0.992591,-0.491896 1.48889,-0.421625 0.318136,0.05621 0.598093,0.126487 0.62355,0.154596 z"
         id="path134"
         sodipodi:nodetypes="ccccscscccccccccs"
         style="fill:#ffffff;stroke-width:0.0133734" />
    </g>
  </g>
</svg>
